<?xml version="1.0" encoding="UTF-8"?>
<svg id="Layer_1" xmlns="http://www.w3.org/2000/svg" xmlns:xlink="http://www.w3.org/1999/xlink" version="1.1" viewBox="0 0 82 44">
  <!-- Generator: Adobe Illustrator 29.5.1, SVG Export Plug-In . SVG Version: 2.1.0 Build 141)  -->
  <defs>
    <style>
      .st0 {
        fill: url(#linear-gradient);
      }

      .st1 {
        fill: #213743;
      }
    </style>
    <linearGradient id="linear-gradient" x1="41" y1="70" x2="41" y2="0" gradientUnits="userSpaceOnUse">
      <stop offset="0" stop-color="#557086"/>
      <stop offset="1" stop-color="#213743"/>
    </linearGradient>
  </defs>
  <path class="st1" d="M0,4C0,1.8,1.8,0,4,0h74c2.2,0,4,1.8,4,4v36c0,2.2-1.8,4-4,4H4c-2.2,0-4-1.8-4-4V4Z"/>
  <path class="st0" d="M82,40v-14.9c-.2,0-.3.2-.5.3-11.7,5.7-21.8-3.9-26.6-13.7-1.1-2.3-2.5-6.3-4-11.6H4C1.8,0,0,1.8,0,4v36c0,2.2,1.8,4,4,4h74c2.2,0,4-1.8,4-4Z"/>
</svg>